<svg version="1.1" id="Layer_1" xmlns="http://www.w3.org/2000/svg" xmlns:xlink="http://www.w3.org/1999/xlink" x="0px" y="0px"
	 width="100%" viewBox="0 0 129 164" enable-background="new 0 0 129 164" xml:space="preserve">
<path fill="#FDF8F8" opacity="1.000000" stroke="none" 
	d="
M130.000000,61.000000 
	C130.000000,75.354225 130.000000,89.708458 129.657837,104.231323 
	C128.893967,104.888786 128.196289,105.325073 128.091751,105.874268 
	C126.342964,115.061005 122.922562,123.458382 118.277626,131.673111 
	C109.997299,146.317154 98.754807,157.096634 82.952972,163.039612 
	C82.167336,163.335083 81.644958,164.330505 81.000000,165.000000 
	C70.979103,165.000000 60.958210,165.000000 50.765663,164.676422 
	C47.857788,163.161758 45.062981,162.088272 42.395344,160.759460 
	C30.009367,154.589844 20.409931,145.311584 13.882051,133.246796 
	C10.219853,126.478333 7.972433,118.953484 4.914904,111.843681 
	C3.883317,109.444893 2.320195,107.274681 0.999999,105.000000 
	C1.000000,90.645775 1.000000,76.291542 1.329612,61.766273 
	C2.107999,60.788986 2.738616,60.033104 2.977992,59.168858 
	C6.061773,48.035118 10.153662,37.321110 17.036613,27.947247 
	C24.925346,17.203615 34.104706,7.966655 47.343143,3.825947 
	C48.418217,3.489686 49.123096,1.969855 50.000000,1.000000 
	C60.020893,1.000000 70.041786,1.000000 80.236923,1.316616 
	C81.454041,2.371500 82.395325,3.439301 83.555534,3.796955 
	C94.890755,7.291223 103.771690,14.255139 110.893272,23.465235 
	C118.691940,33.550995 124.912834,44.472061 127.198120,57.294758 
	C127.440208,58.653145 129.033539,59.770710 130.000000,61.000000 
M5.003548,93.477074 
	C6.682499,110.637962 12.598665,126.104813 23.490803,139.564224 
	C45.829472,167.168137 81.485031,168.281769 105.508354,142.140503 
	C132.539139,112.726624 134.177246,60.599762 109.080917,28.457315 
	C84.400162,-3.152861 44.174267,-2.417995 20.846069,30.177114 
	C7.468237,48.869171 2.768031,69.870445 5.003548,93.477074 
z"/>

<path fill="#EE3E43" opacity="1.000000" stroke="none" 
	d="
M4.974918,93.026428 
	C2.768031,69.870445 7.468237,48.869171 20.846069,30.177114 
	C44.174267,-2.417995 84.400162,-3.152861 109.080917,28.457315 
	C134.177246,60.599762 132.539139,112.726624 105.508354,142.140503 
	C81.485031,168.281769 45.829472,167.168137 23.490803,139.564224 
	C12.598665,126.104813 6.682499,110.637962 4.974918,93.026428 
M19.829559,124.622787 
	C21.389717,127.175484 22.821163,129.817963 24.529583,132.267242 
	C45.836163,162.813690 82.985565,163.576477 105.511009,133.960236 
	C125.362679,107.859467 127.002365,65.856468 109.293831,37.901287 
	C101.472832,25.554832 91.382538,15.871023 76.910675,12.143770 
	C56.841408,6.974897 36.701210,15.313243 24.168871,34.743309 
	C5.687199,63.397190 5.082658,93.406616 19.829559,124.622787 
z"/>
<path fill="#FEFBFB" opacity="1.000000" stroke="none" 
	d="
M19.615326,124.318787 
	C5.082658,93.406616 5.687199,63.397190 24.168871,34.743309 
	C36.701210,15.313243 56.841408,6.974897 76.910675,12.143770 
	C91.382538,15.871023 101.472832,25.554832 109.293831,37.901287 
	C127.002365,65.856468 125.362679,107.859467 105.511009,133.960236 
	C82.985565,163.576477 45.836163,162.813690 24.529583,132.267242 
	C22.821163,129.817963 21.389717,127.175484 19.615326,124.318787 
M21.917389,49.994427 
	C21.916349,70.481064 21.893421,90.967743 21.926146,111.454330 
	C21.937592,118.619438 25.452806,122.047501 32.664989,122.082558 
	C36.662106,122.101990 40.662056,122.155182 44.656040,122.036011 
	C48.983154,121.906891 52.423210,119.747086 52.863361,115.475609 
	C53.467068,109.616920 53.014343,103.649368 53.014343,97.634888 
	C48.286190,97.634888 44.050350,97.634888 39.253231,97.634888 
	C39.253231,100.409294 39.425343,102.883476 39.170250,105.312798 
	C39.065201,106.313210 38.041275,107.217148 37.435299,108.164970 
	C36.914021,107.303024 35.943417,106.443779 35.938213,105.578728 
	C35.846027,90.255951 35.846321,74.932320 35.935863,59.609512 
	C35.941025,58.726994 36.879398,57.849922 37.383457,56.970318 
	C38.060009,57.860909 39.237579,58.707733 39.319908,59.650230 
	C39.574886,62.569195 39.413109,65.524559 39.413109,68.502876 
	C44.408405,68.502876 48.644855,68.502876 53.232555,68.502876 
	C53.232555,62.501129 53.292282,56.853958 53.215549,51.208645 
	C53.140617,45.695385 50.862789,43.286316 45.349529,43.112869 
	C40.191345,42.950600 35.020893,42.967979 29.861759,43.114578 
	C25.908991,43.226902 22.664793,44.582664 21.917389,49.994427 
M71.825180,109.484970 
	C71.825180,102.912415 71.825180,96.339859 71.825180,89.767303 
	C72.547379,89.628601 73.269569,89.489899 73.991768,89.351196 
	C74.428146,91.042252 75.218544,92.728439 75.241852,94.425163 
	C75.366882,103.529617 75.300911,112.636696 75.300911,121.728180 
	C80.276733,121.728180 84.517754,121.728180 89.108154,121.728180 
	C89.108154,111.745590 89.298882,102.100471 89.009499,92.469780 
	C88.901451,88.874016 87.673050,85.311920 86.837578,81.146591 
	C87.399261,79.425461 88.860741,76.841492 88.987480,74.193634 
	C89.329659,67.045258 89.183517,59.868496 89.077171,52.705280 
	C88.995056,47.173969 86.189629,43.601009 80.782310,43.284107 
	C73.361115,42.849178 65.895317,43.175308 58.330685,43.175308 
	C58.330685,69.665329 58.330685,95.710670 58.330685,121.721497 
	C62.919064,121.721497 67.155228,121.721497 71.825081,121.721497 
	C71.825081,117.744957 71.825081,114.110596 71.825180,109.484970 
M94.820732,43.213337 
	C94.500923,44.761143 93.906425,46.308247 93.902489,47.856853 
	C93.843193,71.169525 93.857529,94.482384 93.872688,117.795197 
	C93.873528,119.077957 94.032997,120.360619 94.118439,121.640526 
	C98.813858,121.640526 103.163300,121.640526 107.478897,121.640526 
	C107.478897,95.295700 107.478897,69.398796 107.478897,43.096622 
	C103.357307,43.096622 99.560242,43.096622 94.820732,43.213337 
z"/>
<path fill="#EE4247" opacity="1.000000" stroke="none" 
	d="
M21.927723,49.551071 
	C22.664793,44.582664 25.908991,43.226902 29.861759,43.114578 
	C35.020893,42.967979 40.191345,42.950600 45.349529,43.112869 
	C50.862789,43.286316 53.140617,45.695385 53.215549,51.208645 
	C53.292282,56.853958 53.232555,62.501129 53.232555,68.502876 
	C48.644855,68.502876 44.408405,68.502876 39.413109,68.502876 
	C39.413109,65.524559 39.574886,62.569195 39.319908,59.650230 
	C39.237579,58.707733 38.060009,57.860909 37.383457,56.970318 
	C36.879398,57.849922 35.941025,58.726994 35.935863,59.609512 
	C35.846321,74.932320 35.846027,90.255951 35.938213,105.578728 
	C35.943417,106.443779 36.914021,107.303024 37.435295,108.164970 
	C38.041275,107.217148 39.065201,106.313210 39.170250,105.312798 
	C39.425343,102.883476 39.253231,100.409294 39.253231,97.634888 
	C44.050350,97.634888 48.286190,97.634888 53.014343,97.634888 
	C53.014343,103.649368 53.467068,109.616920 52.863361,115.475609 
	C52.423210,119.747086 48.983154,121.906891 44.656040,122.036011 
	C40.662056,122.155182 36.662106,122.101990 32.664989,122.082558 
	C25.452806,122.047501 21.937592,118.619438 21.926146,111.454330 
	C21.893421,90.967743 21.916349,70.481064 21.927723,49.551071 
M34.783730,53.033257 
	C35.782291,53.029514 36.801941,53.156597 37.775803,52.999619 
	C42.242092,52.279667 43.849064,54.184322 43.286697,58.546429 
	C43.024387,60.581097 43.241852,62.677616 43.241852,65.068237 
	C45.707684,64.940117 47.292423,64.857773 49.310204,64.752930 
	C49.310204,62.785732 49.306492,61.151775 49.310791,59.517838 
	C49.343590,47.049549 49.344078,47.049553 36.974831,47.049576 
	C25.942957,47.049603 25.942659,47.049599 25.943022,58.194065 
	C25.943600,76.002083 25.969826,93.810165 25.924326,111.618073 
	C25.915155,115.206985 26.826380,118.038094 30.962076,118.178902 
	C35.615421,118.337311 40.308029,118.469101 44.922134,118.003601 
	C46.410107,117.853485 48.738468,115.897728 48.895729,114.558220 
	C49.405430,110.216789 49.086147,105.778038 49.086147,101.408493 
	C46.811432,101.408493 45.209347,101.408493 43.090965,101.408493 
	C43.090965,103.609093 42.909065,105.582458 43.127689,107.510406 
	C43.629707,111.937531 41.068649,112.300201 37.619816,112.259254 
	C34.267597,112.219452 31.890327,112.053520 31.941126,107.569427 
	C32.131527,90.762146 31.974247,73.951103 32.096558,57.142559 
	C32.106407,55.788773 33.251884,54.443253 34.783730,53.033257 
z"/>
<path fill="#EE3E43" opacity="1.000000" stroke="none" 
	d="
M71.825134,109.980598 
	C71.825081,114.110596 71.825081,117.744957 71.825081,121.721497 
	C67.155228,121.721497 62.919064,121.721497 58.330685,121.721497 
	C58.330685,95.710670 58.330685,69.665329 58.330685,43.175308 
	C65.895317,43.175308 73.361115,42.849178 80.782310,43.284107 
	C86.189629,43.601009 88.995056,47.173969 89.077171,52.705280 
	C89.183517,59.868496 89.329659,67.045258 88.987480,74.193634 
	C88.860741,76.841492 87.399261,79.425461 86.837578,81.146591 
	C87.673050,85.311920 88.901451,88.874016 89.009499,92.469780 
	C89.298882,102.100471 89.108154,111.745590 89.108154,121.728180 
	C84.517754,121.728180 80.276733,121.728180 75.300911,121.728180 
	C75.300911,112.636696 75.366882,103.529617 75.241852,94.425163 
	C75.218544,92.728439 74.428146,91.042252 73.991768,89.351196 
	C73.269569,89.489899 72.547379,89.628601 71.825180,89.767303 
	C71.825180,96.339859 71.825180,102.912415 71.825134,109.980598 
M79.061348,47.043289 
	C73.472694,47.043289 67.884048,47.043289 62.296280,47.043289 
	C62.296280,71.114586 62.296280,94.509682 62.296280,117.883934 
	C64.290520,117.883934 66.004471,117.883934 68.124573,117.883934 
	C68.124573,107.109535 68.124573,96.688698 68.124573,86.332726 
	C77.948654,85.101288 79.099976,86.075760 79.101227,95.225166 
	C79.102257,102.808823 79.101440,110.392479 79.101440,117.994339 
	C81.426781,117.994339 83.027328,117.994339 85.113121,117.994339 
	C85.113121,109.469627 84.966148,101.183723 85.172821,92.906647 
	C85.282227,88.525154 84.851631,84.653732 81.211555,82.942169 
	C82.604912,79.715919 84.709244,76.881271 84.938972,73.902069 
	C85.474701,66.954666 85.085701,59.937614 85.117874,52.948994 
	C85.134087,49.427254 83.813820,47.159626 79.061348,47.043289 
z"/>
<path fill="#EE4246" opacity="1.000000" stroke="none" 
	d="
M95.291954,43.154980 
	C99.560242,43.096622 103.357307,43.096622 107.478897,43.096622 
	C107.478897,69.398796 107.478897,95.295700 107.478897,121.640526 
	C103.163300,121.640526 98.813858,121.640526 94.118439,121.640526 
	C94.032997,120.360619 93.873528,119.077957 93.872688,117.795197 
	C93.857529,94.482384 93.843193,71.169525 93.902489,47.856853 
	C93.906425,46.308247 94.500923,44.761143 95.291954,43.154980 
M103.962898,68.500137 
	C103.962898,61.407726 103.962898,54.315315 103.962898,46.996754 
	C101.518600,47.122990 99.785713,47.212486 98.251724,47.291706 
	C98.251724,71.251060 98.251724,94.628143 98.251724,118.006088 
	C100.240326,118.006088 101.856499,118.006088 103.962883,118.006088 
	C103.962883,101.697014 103.962883,85.598534 103.962898,68.500137 
z"/>
<path fill="#FEFAFB" opacity="1.000000" stroke="none" 
	d="
M34.326687,53.063576 
	C33.251884,54.443253 32.106407,55.788773 32.096558,57.142559 
	C31.974247,73.951103 32.131527,90.762146 31.941126,107.569427 
	C31.890327,112.053520 34.267597,112.219452 37.619816,112.259254 
	C41.068649,112.300201 43.629707,111.937531 43.127689,107.510406 
	C42.909065,105.582458 43.090965,103.609093 43.090965,101.408493 
	C45.209347,101.408493 46.811432,101.408493 49.086147,101.408493 
	C49.086147,105.778038 49.405430,110.216789 48.895729,114.558220 
	C48.738468,115.897728 46.410107,117.853485 44.922134,118.003601 
	C40.308029,118.469101 35.615421,118.337311 30.962076,118.178902 
	C26.826380,118.038094 25.915155,115.206985 25.924326,111.618073 
	C25.969826,93.810165 25.943600,76.002083 25.943022,58.194065 
	C25.942659,47.049599 25.942957,47.049603 36.974831,47.049576 
	C49.344078,47.049553 49.343590,47.049549 49.310791,59.517838 
	C49.306492,61.151775 49.310204,62.785732 49.310204,64.752930 
	C47.292423,64.857773 45.707684,64.940117 43.241852,65.068237 
	C43.241852,62.677616 43.024387,60.581097 43.286697,58.546429 
	C43.849064,54.184322 42.242092,52.279667 37.775803,52.999619 
	C36.801941,53.156597 35.782291,53.029514 34.326687,53.063576 
z"/>
<path fill="#FEFBFB" opacity="1.000000" stroke="none" 
	d="
M79.514786,47.048386 
	C83.813820,47.159626 85.134087,49.427254 85.117874,52.948994 
	C85.085701,59.937614 85.474701,66.954666 84.938972,73.902069 
	C84.709244,76.881271 82.604912,79.715919 81.211555,82.942169 
	C84.851631,84.653732 85.282227,88.525154 85.172821,92.906647 
	C84.966148,101.183723 85.113121,109.469627 85.113121,117.994339 
	C83.027328,117.994339 81.426781,117.994339 79.101440,117.994339 
	C79.101440,110.392479 79.102257,102.808823 79.101227,95.225166 
	C79.099976,86.075760 77.948654,85.101288 68.124573,86.332726 
	C68.124573,96.688698 68.124573,107.109535 68.124573,117.883934 
	C66.004471,117.883934 64.290520,117.883934 62.296280,117.883934 
	C62.296280,94.509682 62.296280,71.114586 62.296280,47.043289 
	C67.884048,47.043289 73.472694,47.043289 79.514786,47.048386 
M70.586159,78.777130 
	C74.038918,78.718864 78.472588,79.423737 78.867722,74.645660 
	C79.448547,67.621956 79.017456,60.514561 79.017456,53.441025 
	C74.965096,53.441025 71.598236,53.441025 67.998230,53.441025 
	C67.998230,61.146072 67.932632,68.448631 68.074173,75.747177 
	C68.093742,76.756287 69.138161,77.745514 70.586159,78.777130 
z"/>
<path fill="#FEFDFD" opacity="1.000000" stroke="none" 
	d="
M103.962891,69.000092 
	C103.962883,85.598534 103.962883,101.697014 103.962883,118.006088 
	C101.856499,118.006088 100.240326,118.006088 98.251724,118.006088 
	C98.251724,94.628143 98.251724,71.251060 98.251724,47.291706 
	C99.785713,47.212486 101.518600,47.122990 103.962898,46.996754 
	C103.962898,54.315315 103.962898,61.407726 103.962891,69.000092 
z"/>
<path fill="#EF454A" opacity="1.000000" stroke="none" 
	d="
M70.147141,78.760544 
	C69.138161,77.745514 68.093742,76.756287 68.074173,75.747177 
	C67.932632,68.448631 67.998230,61.146072 67.998230,53.441025 
	C71.598236,53.441025 74.965096,53.441025 79.017456,53.441025 
	C79.017456,60.514561 79.448547,67.621956 78.867722,74.645660 
	C78.472588,79.423737 74.038918,78.718864 70.147141,78.760544 
M75.278549,66.430595 
	C75.268188,63.961273 75.374641,61.482426 75.174576,59.028572 
	C75.116356,58.314453 74.182365,57.671738 73.649818,56.996292 
	C73.058426,57.602978 71.969795,58.196838 71.953773,58.818359 
	C71.817261,64.112129 71.875633,69.410919 71.875633,74.708199 
	C72.689087,74.784271 73.502548,74.860336 74.316002,74.936401 
	C74.636940,72.420189 74.957878,69.903984 75.278549,66.430595 
z"/>
<path fill="#FEF9F9" opacity="1.000000" stroke="none" 
	d="
M75.278687,66.909180 
	C74.957878,69.903984 74.636940,72.420189 74.316002,74.936401 
	C73.502548,74.860336 72.689087,74.784271 71.875633,74.708199 
	C71.875633,69.410919 71.817261,64.112129 71.953773,58.818359 
	C71.969795,58.196838 73.058426,57.602978 73.649818,56.996292 
	C74.182365,57.671738 75.116356,58.314453 75.174576,59.028572 
	C75.374641,61.482426 75.268188,63.961273 75.278687,66.909180 
z"/>
</svg>