<?xml version="1.0" standalone="no"?>
<!DOCTYPE svg PUBLIC "-//W3C//DTD SVG 20010904//EN"
 "http://www.w3.org/TR/2001/REC-SVG-20010904/DTD/svg10.dtd">
<svg version="1.0" xmlns="http://www.w3.org/2000/svg"
 width="271.000000pt" height="68.000000pt" viewBox="0 0 271.000000 68.000000"
 preserveAspectRatio="xMidYMid meet">

<g transform="translate(0.000000,68.000000) scale(0.100000,-0.100000)"
fill="#000000" stroke="none">
<path d="M185 641 c-99 -44 -158 -146 -163 -281 -3 -68 1 -96 17 -140 31 -82
74 -135 133 -164 128 -64 258 3 319 164 29 77 24 202 -13 280 -62 132 -184
191 -293 141z m161 -17 c112 -53 176 -220 140 -364 -37 -147 -146 -232 -265
-207 -62 12 -141 92 -167 167 -24 71 -24 178 -1 247 21 59 81 133 129 156 43
21 121 21 164 1z"/>
<path d="M102 502 c-9 -7 -12 -45 -10 -158 l3 -149 55 0 55 0 3 39 c2 21 -1
43 -6 48 -13 13 -42 -2 -42 -23 0 -10 -4 -19 -10 -19 -6 0 -10 42 -10 105 0
63 4 105 10 105 6 0 10 -8 10 -18 0 -25 7 -31 31 -25 15 4 19 14 19 48 0 30
-5 45 -16 49 -22 9 -77 7 -92 -2z m98 -47 c0 -40 -26 -50 -32 -12 -2 12 -10
22 -18 22 -12 0 -16 -21 -18 -117 -3 -113 -2 -118 18 -118 13 0 20 7 20 20 0
11 7 20 16 20 11 0 14 -8 12 -32 -3 -32 -5 -33 -48 -33 l-45 0 -3 143 -3 142
51 0 50 0 0 -35z"/>
<path d="M247 503 c-4 -3 -7 -75 -7 -160 l0 -153 25 0 c24 0 25 2 25 66 0 41
4 63 10 59 6 -3 10 -33 10 -66 0 -56 1 -59 24 -59 l25 0 0 150 c0 136 -2 151
-19 160 -21 11 -83 13 -93 3z m101 -72 c2 -31 -2 -59 -9 -67 -9 -11 -9 -18 -1
-26 7 -7 12 -40 12 -75 0 -48 -3 -63 -15 -63 -10 0 -15 16 -17 62 -2 50 -7 63
-20 66 -14 3 -17 -7 -20 -59 -2 -39 -8 -64 -15 -67 -10 -3 -13 30 -13 141 0
143 0 146 23 149 12 2 33 1 47 -2 22 -6 25 -12 28 -59z"/>
<path d="M287 464 c-10 -10 -9 -92 1 -98 19 -12 33 13 30 54 -3 41 -16 59 -31
44z m23 -49 c0 -19 -4 -35 -10 -35 -5 0 -10 16 -10 35 0 19 5 35 10 35 6 0 10
-16 10 -35z"/>
<path d="M387 504 c-4 -4 -7 -77 -7 -161 l0 -154 28 3 27 3 0 155 c0 148 -1
155 -20 158 -12 2 -24 0 -28 -4z m33 -160 c0 -112 -3 -145 -12 -142 -10 3 -14
44 -16 146 -2 122 0 142 13 142 13 0 15 -22 15 -146z"/>
<path d="M625 415 c-20 -19 -25 -34 -25 -74 0 -43 4 -53 31 -75 43 -36 91 -35
130 3 16 16 29 34 29 40 0 17 -58 13 -68 -5 -5 -9 -18 -14 -33 -12 -21 3 -24
8 -24 47 0 54 23 75 53 48 10 -9 31 -17 46 -17 26 0 26 1 12 29 -18 34 -34 41
-87 41 -29 0 -47 -7 -64 -25z"/>
<path d="M910 345 l0 -95 30 0 c27 0 30 3 30 30 0 25 4 30 24 30 19 0 25 -6
28 -27 2 -22 9 -29 31 -31 25 -3 27 -1 27 32 0 19 -5 38 -10 41 -7 4 -7 12 0
25 30 57 -5 90 -97 90 l-63 0 0 -95z m108 43 c15 -15 -3 -38 -29 -38 -14 0
-19 7 -19 25 0 27 26 35 48 13z"/>
<path d="M1210 345 l0 -95 30 0 30 0 0 95 0 95 -30 0 -30 0 0 -95z"/>
<path d="M1490 345 l0 -95 30 0 c27 0 30 3 30 30 0 28 2 30 39 30 49 0 71 21
71 65 0 48 -29 65 -107 65 l-63 0 0 -95z m100 45 c25 -14 15 -40 -16 -40 -19
0 -24 5 -24 25 0 27 10 31 40 15z"/>
<path d="M1690 365 c0 -67 3 -79 25 -100 34 -35 96 -35 130 0 22 21 25 33 25
100 l0 75 -30 0 -29 0 -3 -72 c-3 -70 -4 -73 -28 -73 -24 0 -25 3 -28 73 l-3
72 -29 0 -30 0 0 -75z"/>
<path d="M1910 346 c0 -96 0 -96 25 -96 23 0 25 3 26 53 l1 52 16 -52 c12 -44
19 -53 38 -53 19 0 26 9 38 48 l15 47 0 -47 c1 -46 2 -48 31 -48 l30 0 0 95 0
95 -39 0 c-37 0 -39 -1 -51 -47 -19 -72 -23 -73 -40 -13 -15 53 -17 55 -53 58
l-37 3 0 -95z"/>
<path d="M2160 345 l0 -95 29 0 c25 0 30 4 33 28 3 24 8 28 46 33 49 6 58 13
67 51 5 21 1 33 -19 52 -22 23 -34 26 -91 26 l-65 0 0 -95z m105 42 c23 -17
12 -37 -21 -37 -17 0 -24 6 -24 18 0 33 16 40 45 19z"/>
<path d="M2370 420 c-11 -11 -20 -26 -20 -33 0 -26 32 -56 65 -63 41 -7 63
-29 40 -38 -9 -3 -25 -1 -35 4 -24 13 -70 13 -70 1 0 -5 12 -19 28 -31 21 -17
36 -21 69 -17 58 6 75 22 71 66 -3 33 -7 37 -50 52 -57 19 -67 26 -44 35 10 4
22 2 29 -5 14 -14 67 -15 67 -1 0 26 -41 50 -85 50 -32 0 -51 -6 -65 -20z"/>
<path d="M820 275 c0 -20 5 -25 25 -25 20 0 25 5 25 25 0 20 -5 25 -25 25 -20
0 -25 -5 -25 -25z"/>
<path d="M1120 275 c0 -20 5 -25 25 -25 20 0 25 5 25 25 0 20 -5 25 -25 25
-20 0 -25 -5 -25 -25z"/>
<path d="M1310 275 c0 -20 5 -25 25 -25 20 0 25 5 25 25 0 20 -5 25 -25 25
-20 0 -25 -5 -25 -25z"/>
</g>
</svg>
